# xmcd
#
# Track frame offsets: 
#        150
#        19410
#        28628
#        43539
#        63688
#        77672
#        92270
#        113468
#        125889
#        145560
#        155760
#        167070
#
# Disc length: 2376 seconds
#
# Revision: 0
# Processed by: cddbd v1.5.2PL0 Copyright (c) Steve Scherf et al.
# Submitted via: ExactAudioCopy v1.0b1
#
DISCID=9709460c
DTITLE=Various Artist - Flatpicking Bluegrass
DYEAR=2009
DGENRE=Bluegrass
TTITLE0=My Home's Across the Blue Ridge Mountains
TTITLE1=East Virginia Blues
TTITLE2=Six White Horses
TTITLE3=When the Golden Leaves Begin to Fall
TTITLE4=Long Journey Home
TTITLE5=I'll Stay Around
TTITLE6=Banks of the Ohio
TTITLE7=Why Don't You Tell Me So
TTITLE8=In the Pines
TTITLE9=Tear Drops in My Eyes
TTITLE10=Gone Home
TTITLE11=Airmail Special On the Fly
EXTD=
EXTT0=
EXTT1=
EXTT2=
EXTT3=
EXTT4=
EXTT5=
EXTT6=
EXTT7=
EXTT8=
EXTT9=
EXTT10=
EXTT11=
PLAYORDER=
